<mxfile host="Electron" modified="2023-11-10T10:45:23.309Z" agent="Mozilla/5.0 (Windows NT 10.0; Win64; x64) AppleWebKit/537.36 (KHTML, like Gecko) draw.io/22.0.0 Chrome/114.0.5735.289 Electron/25.8.3 Safari/537.36" etag="G6tlQwl_mqddCZLnkffc" version="22.0.0" type="device">
  <diagram name="Страница — 1" id="OFkjJMPrs0O_vb34kiXz">
    <mxGraphModel dx="-781" dy="478" grid="0" gridSize="10" guides="1" tooltips="1" connect="1" arrows="1" fold="1" page="0" pageScale="1" pageWidth="827" pageHeight="1169" math="0" shadow="0">
      <root>
        <mxCell id="0" />
        <mxCell id="1" parent="0" />
        <mxCell id="RB9qQkZ6Mr-YbvBWjPKB-63" style="edgeStyle=none;shape=connector;rounded=0;orthogonalLoop=1;jettySize=auto;html=1;labelBackgroundColor=none;strokeColor=#990099;align=center;verticalAlign=middle;fontFamily=Helvetica;fontSize=11;fontColor=#990099;endArrow=blockThin;endFill=1;exitX=0.5;exitY=0;exitDx=0;exitDy=0;" parent="1" source="RB9qQkZ6Mr-YbvBWjPKB-65" target="RB9qQkZ6Mr-YbvBWjPKB-66" edge="1">
          <mxGeometry relative="1" as="geometry" />
        </mxCell>
        <mxCell id="RB9qQkZ6Mr-YbvBWjPKB-64" value="a" style="edgeLabel;html=1;align=center;verticalAlign=middle;resizable=0;points=[];fontSize=11;fontFamily=Helvetica;fontColor=#990099;labelBackgroundColor=none;" parent="RB9qQkZ6Mr-YbvBWjPKB-63" vertex="1" connectable="0">
          <mxGeometry x="0.0634" y="-1" relative="1" as="geometry">
            <mxPoint x="4" y="-3" as="offset" />
          </mxGeometry>
        </mxCell>
        <mxCell id="RB9qQkZ6Mr-YbvBWjPKB-65" value="8" style="ellipse;whiteSpace=wrap;html=1;fontColor=#990099;strokeColor=#990099;" parent="1" vertex="1">
          <mxGeometry x="1704.0099999999998" y="191.99999999999955" width="30" height="30" as="geometry" />
        </mxCell>
        <mxCell id="RB9qQkZ6Mr-YbvBWjPKB-66" value="9" style="ellipse;whiteSpace=wrap;html=1;fontColor=#990099;strokeColor=#990099;strokeWidth=1;perimeterSpacing=0;" parent="1" vertex="1">
          <mxGeometry x="1674.0100000000002" y="143.75999999999954" width="30" height="30" as="geometry" />
        </mxCell>
        <mxCell id="RB9qQkZ6Mr-YbvBWjPKB-67" style="edgeStyle=none;shape=connector;rounded=0;orthogonalLoop=1;jettySize=auto;html=1;labelBackgroundColor=none;strokeColor=#990099;align=center;verticalAlign=middle;fontFamily=Helvetica;fontSize=11;fontColor=#990099;endArrow=blockThin;endFill=1;exitX=0;exitY=0;exitDx=0;exitDy=0;entryX=0.5;entryY=1;entryDx=0;entryDy=0;" parent="1" source="RB9qQkZ6Mr-YbvBWjPKB-65" target="RB9qQkZ6Mr-YbvBWjPKB-66" edge="1">
          <mxGeometry relative="1" as="geometry">
            <mxPoint x="1635.4" y="195.37000000000012" as="sourcePoint" />
            <mxPoint x="1684.4" y="195.37000000000012" as="targetPoint" />
          </mxGeometry>
        </mxCell>
        <mxCell id="RB9qQkZ6Mr-YbvBWjPKB-68" value="b" style="edgeLabel;html=1;align=center;verticalAlign=middle;resizable=0;points=[];fontSize=11;fontFamily=Helvetica;fontColor=#990099;labelBackgroundColor=none;" parent="RB9qQkZ6Mr-YbvBWjPKB-67" vertex="1" connectable="0">
          <mxGeometry x="0.0634" y="-1" relative="1" as="geometry">
            <mxPoint x="-3" y="7" as="offset" />
          </mxGeometry>
        </mxCell>
        <mxCell id="RB9qQkZ6Mr-YbvBWjPKB-69" style="edgeStyle=none;shape=connector;rounded=0;orthogonalLoop=1;jettySize=auto;html=1;labelBackgroundColor=none;strokeColor=#990099;align=center;verticalAlign=middle;fontFamily=Helvetica;fontSize=11;fontColor=#990099;endArrow=blockThin;endFill=1;" parent="1" source="RB9qQkZ6Mr-YbvBWjPKB-66" target="RB9qQkZ6Mr-YbvBWjPKB-73" edge="1">
          <mxGeometry relative="1" as="geometry">
            <mxPoint x="1767.0100000000207" y="158.76000000000045" as="sourcePoint" />
            <mxPoint x="1810.0100000000002" y="196.5400000000002" as="targetPoint" />
          </mxGeometry>
        </mxCell>
        <mxCell id="RB9qQkZ6Mr-YbvBWjPKB-70" value="a" style="edgeLabel;html=1;align=center;verticalAlign=middle;resizable=0;points=[];fontSize=11;fontFamily=Helvetica;fontColor=#990099;" parent="RB9qQkZ6Mr-YbvBWjPKB-69" vertex="1" connectable="0">
          <mxGeometry x="-0.107" y="2" relative="1" as="geometry">
            <mxPoint x="1" y="-8" as="offset" />
          </mxGeometry>
        </mxCell>
        <mxCell id="RB9qQkZ6Mr-YbvBWjPKB-71" style="edgeStyle=none;shape=connector;rounded=0;orthogonalLoop=1;jettySize=auto;html=1;labelBackgroundColor=none;strokeColor=#990099;align=center;verticalAlign=middle;fontFamily=Helvetica;fontSize=11;fontColor=#990099;endArrow=blockThin;endFill=1;" parent="1" source="RB9qQkZ6Mr-YbvBWjPKB-73" target="RB9qQkZ6Mr-YbvBWjPKB-78" edge="1">
          <mxGeometry relative="1" as="geometry" />
        </mxCell>
        <mxCell id="RB9qQkZ6Mr-YbvBWjPKB-72" value="b" style="edgeLabel;html=1;align=center;verticalAlign=middle;resizable=0;points=[];fontSize=11;fontFamily=Helvetica;fontColor=#990099;labelBackgroundColor=none;" parent="RB9qQkZ6Mr-YbvBWjPKB-71" vertex="1" connectable="0">
          <mxGeometry x="-0.0521" relative="1" as="geometry">
            <mxPoint x="-1" y="-9" as="offset" />
          </mxGeometry>
        </mxCell>
        <mxCell id="RB9qQkZ6Mr-YbvBWjPKB-73" value="10" style="ellipse;whiteSpace=wrap;html=1;fontColor=#990099;strokeColor=#990099;" parent="1" vertex="1">
          <mxGeometry x="1727.0100000000002" y="143.76000000000045" width="30" height="30" as="geometry" />
        </mxCell>
        <mxCell id="RB9qQkZ6Mr-YbvBWjPKB-74" style="edgeStyle=none;shape=connector;rounded=0;orthogonalLoop=1;jettySize=auto;html=1;labelBackgroundColor=none;strokeColor=#990099;align=center;verticalAlign=middle;fontFamily=Helvetica;fontSize=11;fontColor=#990099;endArrow=blockThin;endFill=1;" parent="1" source="RB9qQkZ6Mr-YbvBWjPKB-73" target="RB9qQkZ6Mr-YbvBWjPKB-73" edge="1">
          <mxGeometry relative="1" as="geometry">
            <mxPoint x="1734.0100000000002" y="201.5400000000002" as="sourcePoint" />
            <mxPoint x="1760.0100000000002" y="201.5400000000002" as="targetPoint" />
            <Array as="points">
              <mxPoint x="1725.0100000000002" y="127.00000000000023" />
              <mxPoint x="1759.0100000000002" y="127.00000000000023" />
            </Array>
          </mxGeometry>
        </mxCell>
        <mxCell id="RB9qQkZ6Mr-YbvBWjPKB-75" value="a" style="edgeLabel;html=1;align=center;verticalAlign=middle;resizable=0;points=[];fontSize=11;fontFamily=Helvetica;fontColor=#990099;" parent="RB9qQkZ6Mr-YbvBWjPKB-74" vertex="1" connectable="0">
          <mxGeometry x="-0.107" y="2" relative="1" as="geometry">
            <mxPoint x="5" y="-6" as="offset" />
          </mxGeometry>
        </mxCell>
        <mxCell id="RB9qQkZ6Mr-YbvBWjPKB-76" style="edgeStyle=none;shape=connector;rounded=0;orthogonalLoop=1;jettySize=auto;html=1;labelBackgroundColor=none;strokeColor=#990099;align=center;verticalAlign=middle;fontFamily=Helvetica;fontSize=11;fontColor=#990099;endArrow=blockThin;endFill=1;" parent="1" source="RB9qQkZ6Mr-YbvBWjPKB-65" target="RB9qQkZ6Mr-YbvBWjPKB-78" edge="1">
          <mxGeometry relative="1" as="geometry">
            <mxPoint x="1640.0100000000002" y="244.01" as="sourcePoint" />
            <mxPoint x="1805.0100000000002" y="246.01" as="targetPoint" />
          </mxGeometry>
        </mxCell>
        <mxCell id="RB9qQkZ6Mr-YbvBWjPKB-77" value="a" style="edgeLabel;html=1;align=center;verticalAlign=middle;resizable=0;points=[];fontSize=11;fontFamily=Helvetica;fontColor=#990099;" parent="RB9qQkZ6Mr-YbvBWjPKB-76" vertex="1" connectable="0">
          <mxGeometry x="0.0634" y="-1" relative="1" as="geometry">
            <mxPoint x="-7" y="-9" as="offset" />
          </mxGeometry>
        </mxCell>
        <mxCell id="RB9qQkZ6Mr-YbvBWjPKB-78" value="11" style="ellipse;whiteSpace=wrap;html=1;fontColor=#990099;strokeColor=#990099;strokeWidth=1;perimeterSpacing=0;" parent="1" vertex="1">
          <mxGeometry x="1785.0100000000002" y="143.75999999999954" width="30" height="30" as="geometry" />
        </mxCell>
        <mxCell id="RB9qQkZ6Mr-YbvBWjPKB-79" style="edgeStyle=none;shape=connector;rounded=0;orthogonalLoop=1;jettySize=auto;html=1;labelBackgroundColor=none;strokeColor=#990099;align=center;verticalAlign=middle;fontFamily=Helvetica;fontSize=11;fontColor=#990099;endArrow=blockThin;endFill=1;exitX=0;exitY=1;exitDx=0;exitDy=0;entryX=0;entryY=0;entryDx=0;entryDy=0;" parent="1" source="RB9qQkZ6Mr-YbvBWjPKB-78" target="RB9qQkZ6Mr-YbvBWjPKB-81" edge="1">
          <mxGeometry relative="1" as="geometry">
            <mxPoint x="1884.6166017177616" y="146.00339828223764" as="sourcePoint" />
          </mxGeometry>
        </mxCell>
        <mxCell id="RB9qQkZ6Mr-YbvBWjPKB-80" value="a" style="edgeLabel;html=1;align=center;verticalAlign=middle;resizable=0;points=[];fontSize=11;fontFamily=Helvetica;fontColor=#990099;" parent="RB9qQkZ6Mr-YbvBWjPKB-79" vertex="1" connectable="0">
          <mxGeometry x="0.0634" y="-1" relative="1" as="geometry">
            <mxPoint x="2" y="-8" as="offset" />
          </mxGeometry>
        </mxCell>
        <mxCell id="RB9qQkZ6Mr-YbvBWjPKB-81" value="12" style="ellipse;whiteSpace=wrap;html=1;fontColor=#990099;strokeColor=#990099;strokeWidth=1;perimeterSpacing=0;" parent="1" vertex="1">
          <mxGeometry x="1757.01" y="209.4499999999996" width="30" height="30" as="geometry" />
        </mxCell>
        <mxCell id="RB9qQkZ6Mr-YbvBWjPKB-82" style="edgeStyle=none;shape=connector;rounded=0;orthogonalLoop=1;jettySize=auto;html=1;labelBackgroundColor=none;strokeColor=#990099;align=center;verticalAlign=middle;fontFamily=Helvetica;fontSize=11;fontColor=#990099;endArrow=blockThin;endFill=1;exitX=0.5;exitY=1;exitDx=0;exitDy=0;entryX=1;entryY=0;entryDx=0;entryDy=0;" parent="1" source="RB9qQkZ6Mr-YbvBWjPKB-78" target="RB9qQkZ6Mr-YbvBWjPKB-81" edge="1">
          <mxGeometry relative="1" as="geometry">
            <mxPoint x="1884.6166017177616" y="167.2166017177608" as="sourcePoint" />
            <mxPoint x="1938.4000000000005" y="193.21999999999957" as="targetPoint" />
          </mxGeometry>
        </mxCell>
        <mxCell id="RB9qQkZ6Mr-YbvBWjPKB-83" value="b" style="edgeLabel;html=1;align=center;verticalAlign=middle;resizable=0;points=[];fontSize=11;fontFamily=Helvetica;fontColor=#990099;labelBackgroundColor=none;" parent="RB9qQkZ6Mr-YbvBWjPKB-82" vertex="1" connectable="0">
          <mxGeometry x="0.0634" y="-1" relative="1" as="geometry">
            <mxPoint x="-2" y="-8" as="offset" />
          </mxGeometry>
        </mxCell>
        <mxCell id="RB9qQkZ6Mr-YbvBWjPKB-84" style="edgeStyle=none;shape=connector;rounded=0;orthogonalLoop=1;jettySize=auto;html=1;labelBackgroundColor=none;strokeColor=#990099;align=center;verticalAlign=middle;fontFamily=Helvetica;fontSize=11;fontColor=#990099;endArrow=blockThin;endFill=1;" parent="1" source="RB9qQkZ6Mr-YbvBWjPKB-81" target="RB9qQkZ6Mr-YbvBWjPKB-90" edge="1">
          <mxGeometry relative="1" as="geometry">
            <mxPoint x="1837.9765429275194" y="197.98917303874282" as="sourcePoint" />
            <mxPoint x="1881.893773567219" y="139.38125860061768" as="targetPoint" />
          </mxGeometry>
        </mxCell>
        <mxCell id="RB9qQkZ6Mr-YbvBWjPKB-85" value="a" style="edgeLabel;html=1;align=center;verticalAlign=middle;resizable=0;points=[];fontSize=11;fontFamily=Helvetica;fontColor=#990099;" parent="RB9qQkZ6Mr-YbvBWjPKB-84" vertex="1" connectable="0">
          <mxGeometry x="-0.107" y="2" relative="1" as="geometry">
            <mxPoint x="-2" y="-6" as="offset" />
          </mxGeometry>
        </mxCell>
        <mxCell id="RB9qQkZ6Mr-YbvBWjPKB-88" style="edgeStyle=none;shape=connector;rounded=0;orthogonalLoop=1;jettySize=auto;html=1;labelBackgroundColor=none;strokeColor=#990099;align=center;verticalAlign=middle;fontFamily=Helvetica;fontSize=11;fontColor=#990099;endArrow=blockThin;endFill=1;entryX=0.5;entryY=0;entryDx=0;entryDy=0;exitX=1;exitY=0.5;exitDx=0;exitDy=0;" parent="1" source="RB9qQkZ6Mr-YbvBWjPKB-78" target="RB9qQkZ6Mr-YbvBWjPKB-90" edge="1">
          <mxGeometry relative="1" as="geometry">
            <mxPoint x="1817.0100000000002" y="134.4799999999998" as="sourcePoint" />
            <mxPoint x="1899.3700000000135" y="147.3900000000001" as="targetPoint" />
          </mxGeometry>
        </mxCell>
        <mxCell id="RB9qQkZ6Mr-YbvBWjPKB-89" value="a" style="edgeLabel;html=1;align=center;verticalAlign=middle;resizable=0;points=[];fontSize=11;fontFamily=Helvetica;fontColor=#990099;labelBackgroundColor=none;" parent="RB9qQkZ6Mr-YbvBWjPKB-88" vertex="1" connectable="0">
          <mxGeometry x="0.0634" y="-1" relative="1" as="geometry">
            <mxPoint x="7" y="-7" as="offset" />
          </mxGeometry>
        </mxCell>
        <mxCell id="RB9qQkZ6Mr-YbvBWjPKB-90" value="13" style="ellipse;whiteSpace=wrap;html=1;fontColor=#990099;strokeColor=#990099;strokeWidth=4;perimeterSpacing=2;" parent="1" vertex="1">
          <mxGeometry x="1841.0000000000002" y="209.45000000000005" width="30" height="30" as="geometry" />
        </mxCell>
        <mxCell id="RB9qQkZ6Mr-YbvBWjPKB-91" style="edgeStyle=none;shape=connector;rounded=0;orthogonalLoop=1;jettySize=auto;html=1;labelBackgroundColor=none;strokeColor=#990099;align=center;verticalAlign=middle;fontFamily=Helvetica;fontSize=11;fontColor=#990099;endArrow=blockThin;endFill=1;exitX=0.5;exitY=1;exitDx=0;exitDy=0;entryX=0;entryY=0.5;entryDx=0;entryDy=0;" parent="1" source="RB9qQkZ6Mr-YbvBWjPKB-78" target="RB9qQkZ6Mr-YbvBWjPKB-90" edge="1">
          <mxGeometry relative="1" as="geometry">
            <mxPoint x="1832.0066017177887" y="154.47660171778875" as="sourcePoint" />
            <mxPoint x="1930.293398282211" y="154.47660171778966" as="targetPoint" />
          </mxGeometry>
        </mxCell>
        <mxCell id="RB9qQkZ6Mr-YbvBWjPKB-92" value="b" style="edgeLabel;html=1;align=center;verticalAlign=middle;resizable=0;points=[];fontSize=11;fontFamily=Helvetica;fontColor=#990099;labelBackgroundColor=none;" parent="RB9qQkZ6Mr-YbvBWjPKB-91" vertex="1" connectable="0">
          <mxGeometry x="0.0634" y="-1" relative="1" as="geometry">
            <mxPoint x="3" y="-7" as="offset" />
          </mxGeometry>
        </mxCell>
        <mxCell id="RB9qQkZ6Mr-YbvBWjPKB-99" style="edgeStyle=none;shape=connector;rounded=0;orthogonalLoop=1;jettySize=auto;html=1;labelBackgroundColor=none;strokeColor=#990099;align=center;verticalAlign=middle;fontFamily=Helvetica;fontSize=11;fontColor=#990099;endArrow=blockThin;endFill=1;" parent="1" target="RB9qQkZ6Mr-YbvBWjPKB-65" edge="1">
          <mxGeometry relative="1" as="geometry">
            <mxPoint x="1680" y="208" as="sourcePoint" />
            <mxPoint x="1708.3800000000006" y="279.3499999999997" as="targetPoint" />
          </mxGeometry>
        </mxCell>
      </root>
    </mxGraphModel>
  </diagram>
</mxfile>
